<svg width="43" height="24" viewBox="0 0 43 24" fill="none" xmlns="http://www.w3.org/2000/svg">
<path d="M22.5738 23.255L21.2014 6.27062C21.1743 5.93557 20.8945 5.67742 20.5583 5.67742H16.8737V4.86065C16.8737 2.18047 14.722 0 12.0417 0H11.9566C9.27639 0 7.06727 2.18047 7.06727 4.86065V5.67742H3.44C3.10383 5.67742 2.824 5.93557 2.79691 6.27062L1.42056 23.3029C1.40602 23.4825 1.46727 23.6599 1.58942 23.7923C1.71157 23.9246 1.88362 24 2.06366 24H21.9346C21.9351 24 21.9358 24 21.9363 24C22.2927 24 22.5815 23.7112 22.5815 23.3548C22.5815 23.3209 22.5789 23.2875 22.5738 23.255ZM8.35759 4.86065C8.35759 2.89196 9.98787 1.29032 11.9566 1.29032H12.0417C14.0104 1.29032 15.5834 2.89196 15.5834 4.86065V5.67742H8.35759V4.86065Z" fill="#337D5A"/>
<circle cx="21.5" cy="7.5" r="7.5" fill="#93B474"/>
<path d="M21.712 10.096C21.248 10.096 20.8347 9.98133 20.472 9.752C20.1093 9.52267 19.824 9.192 19.616 8.76C19.4133 8.32267 19.312 7.80267 19.312 7.2C19.312 6.59733 19.4133 6.08 19.616 5.648C19.824 5.21067 20.1093 4.87733 20.472 4.648C20.8347 4.41867 21.248 4.304 21.712 4.304C22.176 4.304 22.5893 4.41867 22.952 4.648C23.3147 4.87733 23.5973 5.21067 23.8 5.648C24.008 6.08 24.112 6.59733 24.112 7.2C24.112 7.80267 24.008 8.32267 23.8 8.76C23.5973 9.192 23.3147 9.52267 22.952 9.752C22.5893 9.98133 22.176 10.096 21.712 10.096ZM21.712 9C22.0533 9 22.32 8.85333 22.512 8.56C22.7093 8.26667 22.808 7.81333 22.808 7.2C22.808 6.58667 22.7093 6.13333 22.512 5.84C22.32 5.54667 22.0533 5.4 21.712 5.4C21.376 5.4 21.1093 5.54667 20.912 5.84C20.72 6.13333 20.624 6.58667 20.624 7.2C20.624 7.81333 20.72 8.26667 20.912 8.56C21.1093 8.85333 21.376 9 21.712 9Z" fill="white"/>
</svg>
