<svg width="7" height="13" viewBox="0 0 7 13" fill="none" xmlns="http://www.w3.org/2000/svg">
<path d="M0.426474 6.9238H1.85148V12.7903C1.85148 12.9061 1.94534 13 2.06116 13H4.47732C4.59314 13 4.68699 12.9061 4.68699 12.7903V6.95144H6.32516C6.43168 6.95144 6.52129 6.87151 6.53345 6.7657L6.78226 4.60594C6.78909 4.54652 6.77026 4.48701 6.73051 4.44244C6.69071 4.39782 6.63376 4.37228 6.57401 4.37228H4.68708V3.01843C4.68708 2.61032 4.90682 2.40336 5.34026 2.40336C5.40204 2.40336 6.57401 2.40336 6.57401 2.40336C6.68983 2.40336 6.78368 2.30947 6.78368 2.19369V0.211229C6.78368 0.0954032 6.68983 0.00155161 6.57401 0.00155161H4.87373C4.86174 0.000964516 4.83511 0 4.79586 0C4.50084 0 3.47539 0.0579128 2.66537 0.803106C1.76786 1.6289 1.89262 2.61766 1.92244 2.78909V4.37224H0.426474C0.310648 4.37224 0.216797 4.46609 0.216797 4.58191V6.71408C0.216797 6.82991 0.310648 6.9238 0.426474 6.9238Z" fill="#93B474"/>
</svg>
